<svg width="46" height="64" viewBox="0 0 46 64" fill="none" xmlns="http://www.w3.org/2000/svg">
<path d="M0.136364 4.78409V0.727272H19.25V4.78409H12.125V24H7.26136V4.78409H0.136364ZM42.7216 12.3636C42.7216 14.9015 42.2405 17.0606 41.2784 18.8409C40.3239 20.6212 39.0208 21.9811 37.3693 22.9205C35.7254 23.8523 33.8769 24.3182 31.8239 24.3182C29.7557 24.3182 27.8996 23.8485 26.2557 22.9091C24.6117 21.9697 23.3125 20.6098 22.358 18.8295C21.4034 17.0492 20.9261 14.8939 20.9261 12.3636C20.9261 9.82576 21.4034 7.66667 22.358 5.88636C23.3125 4.10606 24.6117 2.75 26.2557 1.81818C27.8996 0.878787 29.7557 0.40909 31.8239 0.40909C33.8769 0.40909 35.7254 0.878787 37.3693 1.81818C39.0208 2.75 40.3239 4.10606 41.2784 5.88636C42.2405 7.66667 42.7216 9.82576 42.7216 12.3636ZM37.733 12.3636C37.733 10.7197 37.4867 9.33333 36.9943 8.20455C36.5095 7.07576 35.8239 6.2197 34.9375 5.63636C34.0511 5.05303 33.0133 4.76136 31.8239 4.76136C30.6345 4.76136 29.5966 5.05303 28.7102 5.63636C27.8239 6.2197 27.1345 7.07576 26.642 8.20455C26.1572 9.33333 25.9148 10.7197 25.9148 12.3636C25.9148 14.0076 26.1572 15.3939 26.642 16.5227C27.1345 17.6515 27.8239 18.5076 28.7102 19.0909C29.5966 19.6742 30.6345 19.9659 31.8239 19.9659C33.0133 19.9659 34.0511 19.6742 34.9375 19.0909C35.8239 18.5076 36.5095 17.6515 36.9943 16.5227C37.4867 15.3939 37.733 14.0076 37.733 12.3636ZM9.27273 63H1.02273V39.7273H9.34091C11.6818 39.7273 13.697 40.1932 15.3864 41.125C17.0758 42.0492 18.375 43.3788 19.2841 45.1136C20.2008 46.8485 20.6591 48.9242 20.6591 51.3409C20.6591 53.7652 20.2008 55.8485 19.2841 57.5909C18.375 59.3333 17.0682 60.6705 15.3636 61.6023C13.6667 62.5341 11.6364 63 9.27273 63ZM5.94318 58.7841H9.06818C10.5227 58.7841 11.7462 58.5265 12.7386 58.0114C13.7386 57.4886 14.4886 56.6818 14.9886 55.5909C15.4962 54.4924 15.75 53.0758 15.75 51.3409C15.75 49.6212 15.4962 48.2159 14.9886 47.125C14.4886 46.0341 13.7424 45.2311 12.75 44.7159C11.7576 44.2008 10.5341 43.9432 9.07955 43.9432H5.94318V58.7841ZM45.6903 51.3636C45.6903 53.9015 45.2093 56.0606 44.2472 57.8409C43.2926 59.6212 41.9896 60.9811 40.3381 61.9205C38.6941 62.8523 36.8456 63.3182 34.7926 63.3182C32.7244 63.3182 30.8684 62.8485 29.2244 61.9091C27.5805 60.9697 26.2813 59.6098 25.3267 57.8295C24.3722 56.0492 23.8949 53.8939 23.8949 51.3636C23.8949 48.8258 24.3722 46.6667 25.3267 44.8864C26.2813 43.1061 27.5805 41.75 29.2244 40.8182C30.8684 39.8788 32.7244 39.4091 34.7926 39.4091C36.8456 39.4091 38.6941 39.8788 40.3381 40.8182C41.9896 41.75 43.2926 43.1061 44.2472 44.8864C45.2093 46.6667 45.6903 48.8258 45.6903 51.3636ZM40.7017 51.3636C40.7017 49.7197 40.4555 48.3333 39.9631 47.2045C39.4782 46.0758 38.7926 45.2197 37.9062 44.6364C37.0199 44.053 35.982 43.7614 34.7926 43.7614C33.6032 43.7614 32.5653 44.053 31.679 44.6364C30.7926 45.2197 30.1032 46.0758 29.6108 47.2045C29.1259 48.3333 28.8835 49.7197 28.8835 51.3636C28.8835 53.0076 29.1259 54.3939 29.6108 55.5227C30.1032 56.6515 30.7926 57.5076 31.679 58.0909C32.5653 58.6742 33.6032 58.9659 34.7926 58.9659C35.982 58.9659 37.0199 58.6742 37.9062 58.0909C38.7926 57.5076 39.4782 56.6515 39.9631 55.5227C40.4555 54.3939 40.7017 53.0076 40.7017 51.3636Z" fill="url(#paint0_linear_2_130)" fill-opacity="0.2"/>
<defs>
<linearGradient id="paint0_linear_2_130" x1="-1" y1="-7" x2="71" y2="65" gradientUnits="userSpaceOnUse">
<stop/>
<stop offset="0.53125" stop-color="#2A3A59" stop-opacity="0.88"/>
<stop offset="1" stop-color="#7192D2" stop-opacity="0.37"/>
</linearGradient>
</defs>
</svg>
